<?xml version="1.0" encoding="utf-8"?>
<!-- Generator: Adobe Illustrator 25.1.0, SVG Export Plug-In . SVG Version: 6.00 Build 0)  -->
<svg version="1.1" id="Ebene_1" xmlns="http://www.w3.org/2000/svg" xmlns:xlink="http://www.w3.org/1999/xlink" x="0px" y="0px"
	 viewBox="0 0 225 69" style="enable-background:new 0 0 225 69;" xml:space="preserve">
<style type="text/css">
	.st0{fill:url(#Rectangle_1_);}
	.st1{fill:#FFFFFF;}
	.st2{fill:#505050;}
</style>
<g id="Page-1">
	<g id="schullv_logo">
		
			<linearGradient id="Rectangle_1_" gradientUnits="userSpaceOnUse" x1="-85.4007" y1="232.6548" x2="-85.0423" y2="231.4851" gradientTransform="matrix(68.05 0 0 -67.9 5833.3501 15791.6104)">
			<stop  offset="0" style="stop-color:#FFFFFF"/>
			<stop  offset="1.000000e-02" style="stop-color:#FBFDF6"/>
			<stop  offset="5.000000e-02" style="stop-color:#E5F3C8"/>
			<stop  offset="9.000000e-02" style="stop-color:#D1EA9D"/>
			<stop  offset="0.14" style="stop-color:#BFE277"/>
			<stop  offset="0.2" style="stop-color:#B0DB57"/>
			<stop  offset="0.25" style="stop-color:#A3D53B"/>
			<stop  offset="0.32" style="stop-color:#99D025"/>
			<stop  offset="0.4" style="stop-color:#91CC14"/>
			<stop  offset="0.49" style="stop-color:#8BCA09"/>
			<stop  offset="0.63" style="stop-color:#88C802"/>
			<stop  offset="1" style="stop-color:#87C800"/>
		</linearGradient>
		<path id="Rectangle" class="st0" d="M2.8,0.1h62.4c1.6,0,2.8,1.3,2.8,2.8v62.2c0,1.6-1.3,2.8-2.8,2.8H2.8C1.3,68,0,66.7,0,65.2
			V2.9C0,1.4,1.3,0.1,2.8,0.1z"/>
		<path id="Path" class="st1" d="M68.1,25c-11.6,9.2-25.8,23.8-31.7,43.1C27.7,52,22.6,43.1,0.1,24.6C7.3,20.5,18,19.5,18,19.5
			s13.8,23.3,16.1,33.2c4-11.6,16.5-36.4,34-52.6L68.1,25z"/>
		<path id="Path_1_" class="st2" d="M99.3,28.3c-2.2-0.9-4.5-1.4-6.9-1.5c-2.3,0-5.3,1-5.3,4.7c0,5.8,14.8,3.4,14.8,14.7
			c0,7.4-5.8,10.2-12.6,10.2c-2.9,0-5.8-0.4-8.6-1.3l0.6-6.1c2.3,1.3,4.9,2,7.6,2.1c2.6,0,6-1.3,6-4.3c0-6.4-14.8-3.8-14.8-14.9
			c0-7.5,5.8-10.3,11.8-10.3c2.7,0,5.5,0.4,8.1,1.2L99.3,28.3z"/>
		<path id="Path_2_" class="st2" d="M118.3,41.6c-1-0.5-2.1-0.7-3.2-0.7c-2.9,0-4.8,2.3-4.8,5.7s1.6,5.9,4.9,5.9
			c1.2-0.1,2.5-0.3,3.6-0.8l0.2,3.9c-1.5,0.4-3.1,0.6-4.7,0.6c-5.9,0-8.9-4-8.9-9.5c0-5.2,3.1-9.4,8.7-9.4c1.5,0,3.1,0.2,4.6,0.6
			L118.3,41.6z"/>
		<path id="Path_3_" class="st2" d="M122.1,29.5h4.7v10.7h0.1c1.3-1.9,3.4-2.9,5.7-2.9c4.3,0,6.1,3,6.1,7.1v11.4H134v-9.7
			c0-2.2,0-5.2-3.1-5.2c-3.4,0-4.1,3.7-4.1,6v8.8h-4.7L122.1,29.5z"/>
		<path id="Path_4_" class="st2" d="M160.2,55.8h-4.5v-2.5h-0.1c-1.4,1.8-3.6,2.9-5.9,2.9c-4.3,0-6.1-3-6.1-7.1V37.7h4.7v9.7
			c0,2.2,0,5.2,3.1,5.2c3.4,0,4.1-3.7,4.1-6v-8.8h4.7V55.8z"/>
		<polygon id="Path_5_" class="st2" points="165.1,29.5 169.8,29.5 169.8,55.8 165.1,55.8 		"/>
		<polygon id="Path_6_" class="st2" points="176.3,21.6 183.2,21.6 183.2,50.4 196.4,50.4 196.4,55.8 176.3,55.8 		"/>
		<polygon id="Path_7_" class="st2" points="192.8,21.6 200.2,21.6 208.9,48.4 209,48.4 217.7,21.6 224.5,21.6 213,55.8 204.6,55.8 
					"/>
	</g>
</g>
</svg>
